<svg width="40" height="40" viewBox="0 0 40 40" fill="none" xmlns="http://www.w3.org/2000/svg">
<g clip-path="url(#clip0_2043_6553)">
<path d="M14.8872 35.9908L13.9507 40H19.026C17.4113 38.9627 16.0059 37.5459 14.8872 35.9908Z" fill="#185A61"/>
<path d="M27.1921 14.3878C20.1195 14.3878 14.386 20.1213 14.386 27.1939C14.386 34.2665 20.1194 40 27.1921 40C34.2647 40 39.9982 34.2665 39.9982 27.1939C39.9982 20.1213 34.2647 14.3878 27.1921 14.3878ZM30.704 20.4566H28.3627V22.7979H26.0215V20.4566H23.6802V18.1154H26.0215V20.4566H28.3627V18.1154H30.704V20.4566Z" fill="#185A61"/>
<path d="M9.47252 10.7415L10.501 3.86219C10.8049 1.82836 9.22963 0 7.17322 0C5.11681 0 3.5415 1.82836 3.84556 3.86211L4.87267 10.7328C2.82697 13.4572 1.35619 16.6239 0.601735 19.9447C-0.217406 23.5505 -0.197171 27.3576 0.660407 30.9545L2.79759 40H11.5411L13.1986 32.9667C12.4542 31.1784 12.0422 29.2182 12.0422 27.1634C12.0422 24.6259 12.6702 22.2325 13.7778 20.1291C13.0342 16.7382 11.5556 13.5173 9.47252 10.7415Z" fill="#185A61"/>
<path d="M15.5138 17.5231C17.4658 15.1626 20.1184 13.4023 23.1498 12.562C22.7475 11.913 22.3148 11.282 21.8536 10.6737L22.8719 3.86211C23.1759 1.82836 21.6006 0 19.5442 0C17.4877 0 15.9124 1.82836 16.2165 3.86211L17.253 10.7956C16.2374 12.1507 15.3671 13.6068 14.6565 15.1427C14.9795 15.922 15.2659 16.7166 15.5138 17.5231Z" fill="#185A61"/>
</g>
<defs>
<clipPath id="clip0_2043_6553">
<rect width="40" height="40" fill="white"/>
</clipPath>
</defs>
</svg>
