<svg width="20" height="20" viewBox="0 0 20 20" fill="none" xmlns="http://www.w3.org/2000/svg">
<g clip-path="url(#clip0_2043_7611)">
<path d="M0 20H9.30477V10.6953H0V20ZM6.4657 12.3063H7.6348V13.4754H6.4657V12.3063ZM6.4657 17.3545H7.6348V18.5236H6.4657V17.3545ZM4.00051 14.7832H5.16961V15.9523H4.00051V14.7832ZM1.44742 12.3063H2.61652V13.4754H1.44742V12.3063ZM1.44742 17.3545H2.61652V18.5236H1.44742V17.3545Z" fill="#41AF5A"/>
<path d="M13.4205 0L6.84109 6.57945L13.4205 13.1589L20 6.57945L13.4205 0ZM13.4209 2.05379L14.2476 2.88047L13.4209 3.70715L12.5942 2.88047L13.4209 2.05379ZM14.268 6.41168L13.4414 7.23836L12.6147 6.41168L13.4414 5.585L14.268 6.41168ZM13.3997 10.8409L12.573 10.0143L13.3997 9.18758L14.2264 10.0143L13.3997 10.8409Z" fill="#41AF5A"/>
</g>
<defs>
<clipPath id="clip0_2043_7611">
<rect width="20" height="20" fill="white"/>
</clipPath>
</defs>
</svg>
