<svg width="32" height="32" viewBox="0 0 32 32" fill="none" xmlns="http://www.w3.org/2000/svg">
<g clip-path="url(#clip0_2043_6894)">
<path d="M0.0350952 21.1943V25.9848H4.8256L0.0350952 21.1943Z" fill="#185A61"/>
<path d="M15.1825 24.5485C15.1825 19.4035 19.3684 15.2176 24.5135 15.2176C24.5541 15.2176 24.5945 15.2186 24.635 15.2192C24.9285 14.5261 25.177 13.8196 25.3775 13.1007L12.9181 0.641357C10.0265 1.44361 7.37635 2.98179 5.1966 5.16148C2.95935 7.39873 1.39898 10.132 0.61554 13.1129L12.9059 25.4032C13.6794 25.1988 14.4394 24.9411 15.1835 24.6299C15.1834 24.6027 15.1825 24.5757 15.1825 24.5485ZM13.5337 17.7885L11.5077 15.7624L9.1656 18.0198L7.86135 16.6666L10.1785 14.4332L8.23135 12.4862L9.56035 11.1572L11.5319 13.1287L13.1939 11.5268L11.1923 9.52517L12.5213 8.19617L14.5474 10.2222L16.8894 7.96486L18.1936 9.31805L15.8765 11.5514L17.8235 13.4985L16.4945 14.8275L14.523 12.8559L12.861 14.4579L14.8626 16.4595L13.5337 17.7885Z" fill="#185A61"/>
<path d="M24.5134 17.0972C20.4047 17.0972 17.062 20.4399 17.062 24.5486C17.062 28.6574 20.4047 32 24.5134 32C28.6221 32 31.9648 28.6574 31.9648 24.5486C31.9648 20.4399 28.6221 17.0972 24.5134 17.0972ZM24.3999 23.6313H24.5134C25.8978 23.6313 27.024 24.7575 27.024 26.1419C27.024 27.1939 26.3731 28.0964 25.4532 28.4692V30.1717H23.5737V28.4692C22.6537 28.0964 22.0029 27.194 22.0029 26.1419H23.8824C23.8824 26.4898 24.1654 26.7729 24.5134 26.7729C24.8614 26.7729 25.1445 26.4898 25.1445 26.1419C25.1445 25.8326 24.9209 25.5746 24.6269 25.521H24.5134C23.1291 25.521 22.0029 24.3947 22.0029 23.0104C22.0029 21.9583 22.6538 21.0559 23.5737 20.683V18.9255H25.4532V20.683C26.3732 21.0558 27.024 21.9582 27.024 23.0104H25.1445C25.1445 22.6624 24.8614 22.3794 24.5134 22.3794C24.1654 22.3794 23.8824 22.6624 23.8824 23.0104C23.8823 23.3197 24.1059 23.5777 24.3999 23.6313Z" fill="#185A61"/>
<path d="M26.0198 5.08119V0H20.9386L26.0198 5.08119Z" fill="#185A61"/>
<path d="M25.8382 10.9035C25.9582 10.0685 26.0198 9.22075 26.0198 8.36219V7.73919L18.2806 0H17.6576C16.7993 0 15.9506 0.061625 15.1161 0.1815L25.8382 10.9035Z" fill="#185A61"/>
<path d="M0.181969 15.3372C0.0852187 16.089 0.0351562 16.8518 0.0351562 17.6224V18.5362L7.48359 25.9847H8.39734C9.16822 25.9847 9.93066 25.9352 10.683 25.8382L0.181969 15.3372Z" fill="#185A61"/>
</g>
<defs>
<clipPath id="clip0_2043_6894">
<rect width="32" height="32" fill="white"/>
</clipPath>
</defs>
</svg>
