<svg width="40" height="40" viewBox="0 0 40 40" fill="none" xmlns="http://www.w3.org/2000/svg">
<path d="M11.7452 35.5983H9.36914V37.942H30.6305V35.5983H28.2545V33.0945H11.7452V35.5983Z" fill="white"/>
<path d="M40 2.05798H0V25.5951H40V2.05798ZM20 4.24072L24.8504 10.9666L20 17.6924L15.1496 10.9665L20 4.24072ZM7.74523 20.6425C7.37437 20.7633 6.98305 20.8267 6.58172 20.8267C5.58141 20.8267 4.64102 20.4372 3.93367 19.7299C3.22641 19.0226 2.8368 18.0821 2.8368 17.0819C2.8368 16.0816 3.22633 15.1411 3.93367 14.4338L8.91703 9.45048L13.9004 14.4338C14.6077 15.1411 14.9973 16.0816 14.9973 17.0819C14.9973 18.0821 14.6077 19.0226 13.9004 19.7299C13.1931 20.4372 12.2527 20.8267 11.2524 20.8267C10.8511 20.8267 10.4598 20.7633 10.0889 20.6425V23.0643H7.74516L7.74523 20.6425ZM33.1956 20.8267C32.9479 20.8267 32.7043 20.8027 32.4669 20.757V23.0642H30.1231V20.757C29.8857 20.8027 29.6421 20.8267 29.3944 20.8267C27.2966 20.8267 25.59 19.1201 25.59 17.0224C25.59 15.6767 26.2968 14.462 27.3979 13.783C27.3936 13.7092 27.3915 13.635 27.3915 13.5607C27.3915 11.4629 29.0981 9.75634 31.1959 9.75634C33.2936 9.75634 35.0002 11.463 35.0002 13.5607C35.0002 13.5977 34.9997 13.6346 34.9986 13.6716C36.2041 14.3201 37 15.592 37 17.0224C37 19.1201 35.2934 20.8267 33.1956 20.8267Z" fill="white"/>
<path d="M7.57246 18.0726L8.91715 16.728L10.2618 18.0725C10.5264 18.3373 10.8783 18.483 11.2525 18.483C11.6268 18.483 11.9786 18.3373 12.2432 18.0726C12.5079 17.8079 12.6536 17.4561 12.6536 17.0819C12.6536 16.7076 12.5079 16.3558 12.2432 16.0911L8.91715 12.765L5.59106 16.0911C5.32645 16.3558 5.18066 16.7076 5.18066 17.0819C5.18066 17.4561 5.32645 17.8079 5.59106 18.0726C5.85574 18.3373 6.20754 18.483 6.58176 18.483C6.95598 18.483 7.30785 18.3372 7.57246 18.0726Z" fill="white"/>
<path d="M0 27.9389H40V30.7508H0V27.9389Z" fill="white"/>
<path d="M34.6561 17.0223C34.6561 16.3188 34.1552 15.7153 33.4649 15.5871L32.1189 15.3371L32.5735 14.0457C32.6284 13.8898 32.6563 13.7266 32.6563 13.5607C32.6563 12.7553 32.0011 12.1001 31.1957 12.1001C30.3903 12.1001 29.7351 12.7553 29.7351 13.5607C29.7351 13.7355 29.7655 13.9063 29.8255 14.0681L30.2755 15.282L29.023 15.6092C28.3816 15.7769 27.9336 16.3579 27.9336 17.0223C27.9336 17.8278 28.5888 18.4829 29.3942 18.4829C29.7955 18.4829 30.1701 18.3228 30.4487 18.032L31.2949 17.1487L32.1411 18.032C32.4197 18.3228 32.7941 18.4829 33.1955 18.4829C34.0009 18.483 34.6561 17.8278 34.6561 17.0223Z" fill="white"/>
<path d="M18.0391 10.9666L19.9998 13.6854L21.9606 10.9666L19.9998 8.24768L18.0391 10.9666Z" fill="white"/>
</svg>
