<svg width="40" height="40" viewBox="0 0 40 40" fill="none" xmlns="http://www.w3.org/2000/svg">
<g clip-path="url(#clip0_2043_6648)">
<path d="M32.4256 6.92164L33.7558 9.47719C33.89 9.73516 34.0613 9.97125 34.265 10.1791L35.9213 11.8686L40.0001 7.78977L35.1017 4.89836L32.2103 0L28.1411 4.06922L28.6102 4.14797C30.2375 4.42102 31.6639 5.45789 32.4256 6.92164Z" fill="white"/>
<path d="M6.24937 9.46828L7.58828 6.90805C8.35102 5.44945 9.77555 4.41602 11.3989 4.14352L11.8566 4.06672L7.78984 0L4.89836 4.89836L0 7.78977L4.07594 11.8657L5.74305 10.1649C5.94516 9.95883 6.11547 9.72437 6.24937 9.46828Z" fill="white"/>
<path d="M7.57547 33.0775L6.24531 30.5218C6.11094 30.2638 5.93969 30.0277 5.73609 29.8201L4.07977 28.1304L0 32.2101L4.89836 35.1016L7.78984 40L11.86 35.9297L11.3909 35.851C9.76367 35.5779 8.33734 34.5412 7.57547 33.0775Z" fill="white"/>
<path d="M34.2581 29.834C34.0559 30.0404 33.8854 30.2747 33.7517 30.5307L32.4127 33.0909C31.65 34.5495 30.2256 35.583 28.6022 35.8555L28.1428 35.9326L32.2102 40L35.1017 35.1016L40 32.2101L35.9241 28.1343L34.2581 29.834Z" fill="white"/>
<path d="M20.0006 9.91492C14.4399 9.91492 9.91602 14.4388 9.91602 19.9994C9.91602 25.5602 14.4399 30.0841 20.0006 30.0841C25.5612 30.0841 30.0852 25.5602 30.0852 19.9994C30.0852 14.4388 25.5612 9.91492 20.0006 9.91492ZM19.8137 18.82H20.0006C21.927 18.82 23.4941 20.3872 23.4941 22.3135C23.4941 23.8289 22.5241 25.1215 21.1725 25.6043V27.8467H18.8287V25.6043C17.4772 25.1215 16.507 23.8289 16.507 22.3135H18.8508C18.8508 22.9475 19.3666 23.4634 20.0006 23.4634C20.6346 23.4634 21.1504 22.9475 21.1504 22.3135C21.1504 21.7431 20.733 21.2684 20.1876 21.179H20.0006C18.0743 21.179 16.507 19.6117 16.507 17.6854C16.507 16.17 17.4771 14.8775 18.8287 14.3947V12.1522H21.1725V14.3947C22.5241 14.8774 23.4941 16.17 23.4941 17.6854H21.1504C21.1504 17.0514 20.6346 16.5356 20.0006 16.5356C19.3666 16.5356 18.8508 17.0514 18.8508 17.6854C18.8508 18.2558 19.2683 18.7305 19.8137 18.82Z" fill="white"/>
<path d="M30.3358 32.0049L31.6748 29.4445C31.9151 28.9849 32.2212 28.564 32.5843 28.1935L34.6081 26.1287C35.2488 25.475 35.5517 24.5442 35.4182 23.6386L34.9966 20.7782C34.921 20.2651 34.9212 19.7447 34.9974 19.2314L35.4213 16.3735C35.5558 15.467 35.253 14.535 34.6115 13.8806L32.5912 11.8197C32.2254 11.4465 31.9178 11.0224 31.6768 10.5592L30.3466 8.00368C29.9225 7.18868 29.1283 6.61142 28.2223 6.45931L25.3822 5.98267C24.865 5.89579 24.3651 5.73314 23.8964 5.49923L21.3195 4.21368C20.9081 4.00845 20.4565 3.90579 20.0051 3.90579C19.5545 3.90579 19.104 4.00806 18.6932 4.21251L16.114 5.49634C15.6463 5.72907 15.1481 5.89087 14.6331 5.97736L11.7868 6.45501C10.883 6.60665 10.0898 7.18212 9.66514 7.99423L8.32623 10.5545C8.08584 11.0142 7.77983 11.4352 7.4167 11.8056L5.39288 13.8703C4.75217 14.524 4.44936 15.4549 4.5828 16.3605L5.00436 19.2208C5.07998 19.734 5.07975 20.2544 5.00366 20.7675L4.57975 23.6255C4.44522 24.532 4.74795 25.4639 5.38959 26.1185L7.40983 28.1794C7.7753 28.5522 8.08295 28.9762 8.3242 29.4396L9.65436 31.9954C10.0786 32.8103 10.8727 33.3876 11.7787 33.5397L14.6188 34.0163C15.1356 34.103 15.6355 34.2656 16.1045 34.4997L18.6813 35.7854C19.5033 36.1956 20.4852 36.1961 21.3077 35.7867L23.8869 34.5029C24.3545 34.2702 24.8528 34.1083 25.368 34.0219L28.2142 33.5442C29.118 33.3924 29.9111 32.817 30.3358 32.0049ZM20.0005 32.4278C13.1475 32.4278 7.57217 26.8525 7.57217 19.9995C7.57217 13.1465 13.1475 7.57118 20.0005 7.57118C26.8535 7.57118 32.4288 13.1465 32.4288 19.9995C32.4288 26.8525 26.8535 32.4278 20.0005 32.4278Z" fill="white"/>
</g>
<defs>
<clipPath id="clip0_2043_6648">
<rect width="40" height="40" fill="white"/>
</clipPath>
</defs>
</svg>
