<svg width="40" height="40" viewBox="0 0 40 40" fill="none" xmlns="http://www.w3.org/2000/svg">
<g clip-path="url(#clip0_2043_6666)">
<path d="M29.2397 26.8652H32.2747V29.681H29.2397V26.8652Z" fill="white"/>
<path d="M17.2017 5.34742L19.0276 0H7.06006L8.886 5.34742H17.2017Z" fill="white"/>
<path d="M16.1385 29.681H26.8959V23.6443C26.8959 18.443 24.6084 13.5452 20.6198 10.2069L17.614 7.69116H8.50109L5.72648 10.2172C2.08719 13.5303 0 18.2532 0 23.1747V40H16.1385V29.681ZM11.9593 26.9971V24.7044C10.5866 24.22 9.59984 22.9104 9.59984 21.3739H11.9436C11.9436 22.0287 12.4763 22.5614 13.1312 22.5614C13.786 22.5614 14.3188 22.0287 14.3188 21.3739C14.3188 20.7842 13.8867 20.2935 13.3226 20.2017H13.1312C11.184 20.2017 9.59984 18.6176 9.59984 16.6704C9.59984 15.1339 10.5866 13.8243 11.9593 13.3398V11.0472H14.303V13.3398C15.6758 13.8243 16.6625 15.1339 16.6625 16.6704H14.3188C14.3188 16.0155 13.786 15.4829 13.1312 15.4829C12.4763 15.4829 11.9436 16.0155 11.9436 16.6704C11.9436 17.2601 12.3756 17.7508 12.9398 17.8426H13.1312C15.0784 17.8426 16.6625 19.4267 16.6625 21.3739C16.6625 22.9104 15.6759 24.22 14.303 24.7044V26.9971H11.9593Z" fill="white"/>
<path d="M23.8608 32.0248H26.8958V34.8405H23.8608V32.0248Z" fill="white"/>
<path d="M18.4824 37.1842H21.5174V40H18.4824V37.1842Z" fill="white"/>
<path d="M34.6182 32.0248H37.6532V34.8405H34.6182V32.0248Z" fill="white"/>
<path d="M34.6182 26.8652H37.6532V29.681H34.6182V26.8652Z" fill="white"/>
<path d="M34.6182 21.7057H37.6532V24.5215H34.6182V21.7057Z" fill="white"/>
<path d="M34.6182 37.1842H37.6532V40H34.6182V37.1842Z" fill="white"/>
<path d="M29.2397 21.7057H32.2747V24.5215H29.2397V21.7057Z" fill="white"/>
<path d="M29.2397 37.1842H32.2747V40H29.2397V37.1842Z" fill="white"/>
<path d="M29.2397 32.0248H32.2747V34.8405H29.2397V32.0248Z" fill="white"/>
<path d="M18.4824 32.0248H21.5174V34.8405H18.4824V32.0248Z" fill="white"/>
<path d="M23.8608 37.1842H26.8958V40H23.8608V37.1842Z" fill="white"/>
<path d="M35.3403 6.62985H37.6701V8.95962H35.3403V6.62985Z" fill="white"/>
<path d="M35.3403 11.2893H37.6701V13.6191H35.3403V11.2893Z" fill="white"/>
<path d="M37.6704 8.95953H40.0002V11.2893H37.6704V8.95953Z" fill="white"/>
<path d="M33.0107 8.95953H35.3405V11.2893H33.0107V8.95953Z" fill="white"/>
</g>
<defs>
<clipPath id="clip0_2043_6666">
<rect width="40" height="40" fill="white"/>
</clipPath>
</defs>
</svg>
