<svg width="40" height="40" viewBox="0 0 40 40" fill="none" xmlns="http://www.w3.org/2000/svg">
<g clip-path="url(#clip0_2043_6658)">
<path d="M0 39.0595H40V19.2901H0V39.0595ZM27.5394 23.4273H36.0561V25.9504L33.7768 29.5133C32.8571 30.9509 32.371 32.6129 32.371 34.3196V35.2689H30.0273V34.3196C30.0273 32.1644 30.6411 30.0657 31.8025 28.2503L33.3885 25.771H29.8831V28.0448H27.5394V23.4273ZM15.7416 23.4273H24.2584V25.9504L21.9791 29.5133C21.0595 30.9509 20.5733 32.6129 20.5733 34.3196V35.2689H18.2295V34.3196C18.2295 32.1645 18.8434 30.0657 20.0048 28.2503L21.5908 25.771H18.0853V28.0448H15.7416L15.7416 23.4273ZM3.78758 23.4273H12.3043V25.9504L10.025 29.5133C9.10531 30.9509 8.61922 32.6129 8.61922 34.3196V35.2689H6.27547V34.3196C6.27547 32.1644 6.8893 30.0657 8.0507 28.2503L9.63672 25.771H6.13133V28.0448H3.78758V23.4273Z" fill="white"/>
<path d="M2.31273 15.9741L6.05477 15.1242L9.7968 15.9741L10.1448 12.1526L12.1095 8.85626L8.58258 7.34431L6.05477 4.45728L3.52695 7.34431L0 8.85626L1.96461 12.1526L2.31273 15.9741Z" fill="white"/>
<path d="M16.258 12.4574L20.0001 11.6075L23.7421 12.4574L24.0902 8.63586L26.0548 5.33969L22.5279 3.82766L20.0001 0.940552L17.4723 3.82766L13.9453 5.33969L15.9099 8.63586L16.258 12.4574Z" fill="white"/>
<path d="M30.2033 15.9741L33.9453 15.1242L37.6873 15.9741L38.0355 12.1526L40.0001 8.85626L36.4731 7.34431L33.9453 4.45728L31.4175 7.34431L27.8906 8.85626L29.8552 12.1526L30.2033 15.9741Z" fill="white"/>
</g>
<defs>
<clipPath id="clip0_2043_6658">
<rect width="40" height="40" fill="white"/>
</clipPath>
</defs>
</svg>
